<svg width="919" height="998" viewBox="0 0 919 998" fill="none" xmlns="http://www.w3.org/2000/svg">
<g clip-path="url(#clip0_4_26)">
<path d="M817.538 175.621L560.186 27.0186C529.474 9.32008 494.65 0.0039978 459.204 0.0039978C423.757 0.0039978 388.933 9.32008 358.222 27.0186L100.869 175.621C70.1911 193.346 44.7187 218.835 27.0125 249.524C9.3063 280.214 -0.00999021 315.023 -7.24422e-06 350.454V647.602C0.00710491 683.03 9.3306 717.833 27.0351 748.519C44.7396 779.206 70.2026 804.697 100.869 822.435L358.222 970.981C388.924 988.707 423.752 998.04 459.204 998.04C494.656 998.04 529.483 988.707 560.186 970.981L817.538 822.435C819.621 821.141 821.647 819.902 823.561 818.608C852.598 800.511 876.543 775.313 893.138 745.392C909.733 715.472 918.43 681.817 918.408 647.602V350.454C918.418 315.023 909.101 280.214 891.395 249.524C873.689 218.835 848.217 193.346 817.538 175.621ZM590.582 440.685C598.241 448.342 604.316 457.434 608.461 467.439C612.606 477.445 614.74 488.17 614.74 499C614.74 509.83 612.606 520.555 608.461 530.561C604.316 540.566 598.241 549.658 590.582 557.315L517.406 630.491C509.753 638.156 500.663 644.238 490.656 648.387C480.65 652.536 469.924 654.672 459.091 654.672C448.259 654.672 437.533 652.536 427.526 648.387C417.52 644.238 408.43 638.156 400.776 630.491L327.601 557.315C319.942 549.658 313.866 540.566 309.721 530.561C305.576 520.555 303.443 509.83 303.443 499C303.443 488.17 305.576 477.445 309.721 467.439C313.866 457.434 319.942 448.342 327.601 440.685L400.776 367.509C408.43 359.844 417.52 353.762 427.526 349.613C437.533 345.464 448.259 343.328 459.091 343.328C469.924 343.328 480.65 345.464 490.656 349.613C500.663 353.762 509.753 359.844 517.406 367.509L590.582 440.685Z" fill="#5240AB"/>
<path d="M359.46 209.619L517.519 367.678C509.865 360.013 500.775 353.931 490.769 349.782C480.762 345.633 470.036 343.497 459.204 343.497C448.371 343.497 437.645 345.633 427.639 349.782C417.633 353.931 408.542 360.013 400.889 367.678L327.713 440.854C320.054 448.511 313.979 457.602 309.834 467.608C305.689 477.614 303.555 488.338 303.555 499.169C303.555 509.999 305.689 520.724 309.834 530.729C313.979 540.735 320.054 549.826 327.713 557.484L400.889 630.659C408.542 638.325 417.633 644.406 427.639 648.556C437.645 652.705 448.371 654.841 459.204 654.841C470.036 654.841 480.762 652.705 490.769 648.556C500.775 644.406 509.865 638.325 517.519 630.659L359.46 788.718C326.111 822.07 282.674 843.464 235.907 849.572C189.14 855.68 141.665 846.159 100.869 822.491C70.2026 804.753 44.7396 779.262 27.0351 748.575C9.3306 717.889 0.00710491 683.086 -7.24422e-06 647.659V350.454C-0.00999021 315.023 9.3063 280.213 27.0125 249.524C44.7187 218.835 70.1911 193.346 100.869 175.621C141.689 151.981 189.178 142.498 235.946 148.647C282.714 154.796 326.138 176.232 359.46 209.619Z" fill="url(#paint0_linear_4_26)"/>
<path d="M359.46 209.619L517.519 367.678C509.865 360.013 500.775 353.931 490.769 349.782C480.762 345.633 470.036 343.497 459.204 343.497C448.371 343.497 437.645 345.633 427.639 349.782C417.633 353.931 408.542 360.013 400.889 367.678L327.713 440.854C320.054 448.511 313.979 457.602 309.834 467.608C305.689 477.614 303.555 488.338 303.555 499.169C303.555 509.999 305.689 520.724 309.834 530.729C313.979 540.735 320.054 549.826 327.713 557.484L400.889 630.659C408.542 638.325 417.633 644.406 427.639 648.556C437.645 652.705 448.371 654.841 459.204 654.841C470.036 654.841 480.762 652.705 490.769 648.556C500.775 644.406 509.865 638.325 517.519 630.659L359.46 788.718C326.111 822.07 282.674 843.464 235.907 849.572C189.14 855.68 141.665 846.159 100.869 822.491C70.2026 804.753 44.7396 779.262 27.0351 748.575C9.3306 717.889 0.00710491 683.086 -7.24422e-06 647.659V350.454C-0.00999021 315.023 9.3063 280.213 27.0125 249.524C44.7187 218.835 70.1911 193.346 100.869 175.621C141.689 151.981 189.178 142.498 235.946 148.647C282.714 154.796 326.138 176.232 359.46 209.619Z" fill="url(#paint1_linear_4_26)"/>
<path d="M918.408 350.454V647.602C918.43 681.817 909.733 715.472 893.138 745.392C876.543 775.313 852.598 800.511 823.561 818.608C834.061 811.33 842.835 801.835 849.263 790.794C855.69 779.752 859.614 767.434 860.758 754.71C861.901 741.985 860.237 729.165 855.881 717.154C851.525 705.144 844.585 694.237 835.55 685.203L517.519 367.678L359.46 209.619C326.111 176.268 282.674 154.874 235.907 148.766C189.14 142.658 141.665 152.178 100.869 175.846L358.222 27.2437C388.933 9.5452 423.757 0.229156 459.204 0.229156C494.65 0.229156 529.474 9.5452 560.186 27.2437L817.538 175.846C848.184 193.552 873.635 219.005 891.339 249.652C909.043 280.298 918.378 315.061 918.408 350.454Z" fill="url(#paint2_linear_4_26)"/>
<path d="M871.969 755.621C873.302 741.267 871.44 726.797 866.515 713.25C861.59 699.702 853.726 687.413 843.487 677.267L525.512 359.685L367.453 201.626C346.58 180.627 321.747 163.978 294.393 152.644C267.039 141.31 237.708 135.517 208.1 135.6C202.471 135.6 197.123 135.6 191.663 136.219V147.477C197.292 147.083 202.583 146.801 208.1 146.801C236.219 146.783 264.064 152.318 290.039 163.088C316.013 173.858 339.605 189.652 359.46 209.563L517.519 367.622L835.55 685.147C845.043 694.604 852.21 706.136 856.488 718.834C860.766 731.532 862.039 745.049 860.205 758.322H871.463C871.8 757.591 871.913 756.634 871.969 755.621Z" fill="url(#paint3_linear_4_26)"/>
<path d="M517.519 367.678L359.46 209.619C330.598 180.694 294.055 160.64 254.153 151.832C214.252 143.024 172.662 145.829 134.305 159.916L131.997 160.817C121.224 164.911 110.796 169.861 100.813 175.621C91.2561 181.183 82.164 187.508 73.6257 194.534C71.4305 196.335 69.2352 198.136 67.1525 200.163C107.603 182.415 152.466 177.283 195.879 185.438C239.292 193.592 279.236 214.654 310.489 245.869L418.845 354.225C434.508 345.405 452.629 341.956 470.437 344.406C488.246 346.856 504.762 355.069 517.463 367.791L517.519 367.678Z" fill="url(#paint4_linear_4_26)"/>
<path d="M835.55 685.203C844.585 694.237 851.525 705.144 855.881 717.154C860.237 729.165 861.901 741.985 860.758 754.71C859.614 767.434 855.69 779.752 849.263 790.794C842.835 801.835 834.061 811.33 823.561 818.608C821.647 819.902 819.621 821.141 817.538 822.435L560.186 970.981C529.483 988.707 494.656 998.039 459.204 998.039C423.752 998.039 388.924 988.707 358.222 970.981L100.869 822.435C141.665 846.103 189.14 855.623 235.907 849.515C282.674 843.407 326.111 822.013 359.46 788.662L517.519 630.434L590.694 557.259C598.353 549.601 604.429 540.51 608.574 530.504C612.719 520.498 614.852 509.774 614.852 498.944C614.852 488.113 612.719 477.389 608.574 467.383C604.429 457.377 598.353 448.286 590.694 440.629L835.55 685.203Z" fill="url(#paint5_linear_4_26)"/>
<path d="M517.519 630.434C505.321 642.607 489.601 650.631 472.587 653.369C455.574 656.107 438.13 653.42 422.729 645.689L279.868 788.493C249.409 819.004 210.409 839.555 168.022 847.427C202.31 853.965 237.676 852.013 271.036 841.74C304.395 831.467 334.734 813.186 359.404 788.493L517.519 630.434Z" fill="url(#paint6_linear_4_26)"/>
<path d="M590.582 440.685C603.22 453.38 611.368 469.855 613.786 487.604C616.204 505.354 612.76 523.408 603.979 539.021L798.794 733.555C809.89 744.603 817.873 758.385 821.935 773.507C825.997 788.629 825.995 804.556 821.929 819.677L823.561 818.608C834.061 811.33 842.835 801.835 849.263 790.794C855.69 779.752 859.614 767.434 860.758 754.71C861.901 741.985 860.237 729.165 855.881 717.154C851.525 705.144 844.585 694.237 835.551 685.203L590.582 440.685Z" fill="url(#paint7_linear_4_26)"/>
<path d="M625.65 491.626H614.392C615.477 503.643 613.907 515.751 609.792 527.093C605.677 538.435 599.119 548.733 590.582 557.259L517.406 630.434L359.348 788.493C339.492 808.404 315.901 824.198 289.926 834.968C263.952 845.739 236.106 851.274 207.987 851.255C202.358 851.255 197.011 850.974 191.551 850.523V861.781C197.18 862.175 202.471 862.4 207.987 862.4C237.602 862.488 266.938 856.692 294.294 845.347C321.65 834.003 346.479 817.337 367.341 796.317L525.4 638.258L598.575 565.083C608.126 555.521 615.492 544.004 620.166 531.323C624.84 518.642 626.711 505.099 625.65 491.626Z" fill="url(#paint8_linear_4_26)"/>
</g>
<defs>
<linearGradient id="paint0_linear_4_26" x1="-50.0407" y1="757.365" x2="721.284" y2="-13.9596" gradientUnits="userSpaceOnUse">
<stop offset="0.1" stop-color="#8155E5"/>
<stop offset="0.2" stop-color="#7860E7"/>
<stop offset="0.39" stop-color="#5F7DEC"/>
<stop offset="0.64" stop-color="#36ACF4"/>
<stop offset="0.93" stop-color="#00EBFF"/>
</linearGradient>
<linearGradient id="paint1_linear_4_26" x1="-50.0407" y1="757.365" x2="721.284" y2="-13.9596" gradientUnits="userSpaceOnUse">
<stop offset="0.1" stop-color="#8155E5"/>
<stop offset="0.2" stop-color="#7860E7"/>
<stop offset="0.39" stop-color="#5F7DEC"/>
<stop offset="0.64" stop-color="#36ACF4"/>
<stop offset="0.93" stop-color="#00EBFF"/>
</linearGradient>
<linearGradient id="paint2_linear_4_26" x1="382.932" y1="94.4526" x2="943.175" y2="654.751" gradientUnits="userSpaceOnUse">
<stop offset="0.15" stop-color="#FD2EB2"/>
<stop offset="0.25" stop-color="#F42BB8"/>
<stop offset="0.4" stop-color="#DA22C7"/>
<stop offset="0.59" stop-color="#B113E0"/>
<stop offset="0.81" stop-color="#7D00FF"/>
</linearGradient>
<linearGradient id="paint3_linear_4_26" x1="213.728" y1="108.525" x2="863.076" y2="757.928" gradientUnits="userSpaceOnUse">
<stop offset="0.02" stop-color="#FE8FD6" stop-opacity="0"/>
<stop offset="0.06" stop-color="#FE90DC" stop-opacity="0.17"/>
<stop offset="0.12" stop-color="#FE91E5" stop-opacity="0.39"/>
<stop offset="0.17" stop-color="#FD92EC" stop-opacity="0.57"/>
<stop offset="0.23" stop-color="#FD93F2" stop-opacity="0.73"/>
<stop offset="0.28" stop-color="#FD94F6" stop-opacity="0.85"/>
<stop offset="0.33" stop-color="#FD95F9" stop-opacity="0.93"/>
<stop offset="0.38" stop-color="#FD95FB" stop-opacity="0.98"/>
<stop offset="0.43" stop-color="#FD95FC"/>
<stop offset="0.52" stop-color="#F48EFC"/>
<stop offset="0.67" stop-color="#DA7BFD"/>
<stop offset="0.86" stop-color="#B15CFF"/>
<stop offset="0.9" stop-color="#A956FF"/>
<stop offset="0.94" stop-color="#A147FF" stop-opacity="0.49"/>
<stop offset="0.99" stop-color="#9A38FF" stop-opacity="0"/>
</linearGradient>
<linearGradient id="paint4_linear_4_26" x1="142.748" y1="133.573" x2="532.886" y2="525.456" gradientUnits="userSpaceOnUse">
<stop offset="0.03" stop-color="#004EAD"/>
<stop offset="0.93" stop-color="#3FAFEA" stop-opacity="0"/>
</linearGradient>
<linearGradient id="paint5_linear_4_26" x1="253.919" y1="1029.86" x2="806.055" y2="477.723" gradientUnits="userSpaceOnUse">
<stop offset="0.11" stop-color="#FD5D85"/>
<stop offset="0.28" stop-color="#FD6A7D"/>
<stop offset="0.61" stop-color="#FE8B68"/>
<stop offset="1" stop-color="#FFBB49"/>
</linearGradient>
<linearGradient id="paint6_linear_4_26" x1="554.838" y1="526.75" x2="151.923" y2="929.722" gradientUnits="userSpaceOnUse">
<stop offset="0.28" stop-color="#4637D2"/>
<stop offset="0.34" stop-color="#4839D2" stop-opacity="0.97"/>
<stop offset="0.42" stop-color="#4D3ED4" stop-opacity="0.9"/>
<stop offset="0.5" stop-color="#5547D6" stop-opacity="0.78"/>
<stop offset="0.59" stop-color="#6053D8" stop-opacity="0.6"/>
<stop offset="0.69" stop-color="#6F63DC" stop-opacity="0.38"/>
<stop offset="0.79" stop-color="#8076E0" stop-opacity="0.12"/>
<stop offset="0.83" stop-color="#887FE2" stop-opacity="0"/>
</linearGradient>
<linearGradient id="paint7_linear_4_26" x1="537.895" y1="461.624" x2="847.821" y2="771.55" gradientUnits="userSpaceOnUse">
<stop offset="0.04" stop-color="#E14534"/>
<stop offset="0.22" stop-color="#E14735" stop-opacity="0.99"/>
<stop offset="0.35" stop-color="#E34C38" stop-opacity="0.94"/>
<stop offset="0.47" stop-color="#E5543D" stop-opacity="0.87"/>
<stop offset="0.58" stop-color="#E86044" stop-opacity="0.77"/>
<stop offset="0.68" stop-color="#EB704E" stop-opacity="0.64"/>
<stop offset="0.78" stop-color="#F08359" stop-opacity="0.48"/>
<stop offset="0.88" stop-color="#F69A67" stop-opacity="0.29"/>
<stop offset="0.97" stop-color="#FCB377" stop-opacity="0.07"/>
<stop offset="1" stop-color="#FEBC7C" stop-opacity="0"/>
</linearGradient>
<linearGradient id="paint8_linear_4_26" x1="227.407" y1="875.516" x2="614.617" y2="488.361" gradientUnits="userSpaceOnUse">
<stop offset="0.05" stop-color="#FE85A3" stop-opacity="0.03"/>
<stop offset="0.11" stop-color="#FE85A3" stop-opacity="0.32"/>
<stop offset="0.16" stop-color="#FE85A3" stop-opacity="0.56"/>
<stop offset="0.2" stop-color="#FE85A3" stop-opacity="0.75"/>
<stop offset="0.24" stop-color="#FE85A3" stop-opacity="0.89"/>
<stop offset="0.28" stop-color="#FE85A3" stop-opacity="0.97"/>
<stop offset="0.3" stop-color="#FE85A3"/>
<stop offset="0.38" stop-color="#FE91A0"/>
<stop offset="0.52" stop-color="#FFB298"/>
<stop offset="0.65" stop-color="#FFD58F"/>
<stop offset="1" stop-color="#FFD58F" stop-opacity="0"/>
</linearGradient>
<clipPath id="clip0_4_26">
<rect width="918.351" height="998" fill="white"/>
</clipPath>
</defs>
</svg>
