<svg width="2542" height="605" viewBox="0 0 2542 605" fill="none" xmlns="http://www.w3.org/2000/svg">
<g clip-path="url(#clip0_4_51)">
<path d="M494.964 106.327L339.155 16.358C320.561 5.64268 299.478 0.00241852 278.017 0.00241852C256.557 0.00241852 235.473 5.64268 216.879 16.358L61.0697 106.327C42.496 117.058 27.0742 132.49 16.3543 151.07C5.63435 169.65 -0.00603916 190.725 4.85228e-06 212.176V392.08C0.00431078 413.529 5.64906 434.599 16.368 453.178C27.0868 471.757 42.5029 487.19 61.0697 497.929L216.879 587.864C235.467 598.596 256.553 604.246 278.017 604.246C299.481 604.246 320.567 598.596 339.155 587.864L494.964 497.929C496.225 497.145 497.452 496.396 498.611 495.612C516.191 484.655 530.688 469.4 540.735 451.285C550.782 433.17 556.048 412.794 556.034 392.08V212.176C556.04 190.725 550.4 169.65 539.68 151.07C528.96 132.49 513.538 117.058 494.964 106.327V106.327ZM357.558 266.805C362.195 271.441 365.873 276.945 368.382 283.003C370.892 289.061 372.184 295.554 372.184 302.111C372.184 308.668 370.892 315.161 368.382 321.219C365.873 327.277 362.195 332.781 357.558 337.417L313.255 381.72C308.621 386.361 303.118 390.043 297.059 392.555C291.001 395.067 284.507 396.36 277.949 396.36C271.391 396.36 264.897 395.067 258.838 392.555C252.78 390.043 247.277 386.361 242.643 381.72L198.34 337.417C193.703 332.781 190.025 327.277 187.515 321.219C185.006 315.161 183.714 308.668 183.714 302.111C183.714 295.554 185.006 289.061 187.515 283.003C190.025 276.945 193.703 271.441 198.34 266.805L242.643 222.502C247.277 217.861 252.78 214.179 258.838 211.667C264.897 209.155 271.391 207.862 277.949 207.862C284.507 207.862 291.001 209.155 297.059 211.667C303.118 214.179 308.621 217.861 313.255 222.502L357.558 266.805Z" fill="#5240AB"/>
<path d="M217.629 126.91L313.323 222.604C308.689 217.963 303.186 214.282 297.128 211.769C291.069 209.257 284.575 207.964 278.017 207.964C271.459 207.964 264.965 209.257 258.907 211.769C252.848 214.282 247.345 217.963 242.711 222.604L198.408 266.907C193.771 271.543 190.093 277.048 187.584 283.105C185.074 289.163 183.782 295.656 183.782 302.213C183.782 308.77 185.074 315.263 187.584 321.321C190.093 327.379 193.771 332.883 198.408 337.519L242.711 381.822C247.345 386.463 252.848 390.145 258.907 392.657C264.965 395.169 271.459 396.462 278.017 396.462C284.575 396.462 291.069 395.169 297.128 392.657C303.186 390.145 308.689 386.463 313.323 381.822L217.629 477.516C197.438 497.708 171.14 510.66 142.826 514.358C114.512 518.056 85.7689 512.292 61.0697 497.963C42.5029 487.224 27.0868 471.791 16.368 453.212C5.64906 434.633 0.00431078 413.563 4.85228e-06 392.114V212.176C-0.00603916 190.725 5.63435 169.65 16.3543 151.07C27.0742 132.49 42.496 117.058 61.0697 106.327C85.7832 92.0146 114.535 86.2731 142.85 89.9958C171.165 93.7186 197.455 106.697 217.629 126.91V126.91Z" fill="url(#paint0_linear_4_51)"/>
<path d="M217.629 126.91L313.323 222.604C308.689 217.963 303.186 214.282 297.128 211.769C291.069 209.257 284.575 207.964 278.017 207.964C271.459 207.964 264.965 209.257 258.907 211.769C252.848 214.282 247.345 217.963 242.711 222.604L198.408 266.907C193.771 271.543 190.093 277.048 187.584 283.105C185.074 289.163 183.782 295.656 183.782 302.213C183.782 308.77 185.074 315.263 187.584 321.321C190.093 327.379 193.771 332.883 198.408 337.519L242.711 381.822C247.345 386.463 252.848 390.145 258.907 392.657C264.965 395.169 271.459 396.462 278.017 396.462C284.575 396.462 291.069 395.169 297.128 392.657C303.186 390.145 308.689 386.463 313.323 381.822L217.629 477.516C197.438 497.708 171.14 510.66 142.826 514.358C114.512 518.056 85.7689 512.292 61.0697 497.963C42.5029 487.224 27.0868 471.791 16.368 453.212C5.64906 434.633 0.00431078 413.563 4.85228e-06 392.114V212.176C-0.00603916 190.725 5.63435 169.65 16.3543 151.07C27.0742 132.49 42.496 117.058 61.0697 106.327C85.7832 92.0146 114.535 86.2731 142.85 89.9958C171.165 93.7186 197.455 106.697 217.629 126.91V126.91Z" fill="url(#paint1_linear_4_51)"/>
<path d="M556.034 212.176V392.08C556.048 412.794 550.782 433.17 540.735 451.285C530.688 469.4 516.19 484.655 498.611 495.612C504.968 491.206 510.28 485.457 514.171 478.772C518.063 472.088 520.439 464.63 521.131 456.926C521.823 449.222 520.815 441.46 518.178 434.189C515.541 426.917 511.339 420.314 505.87 414.845L313.323 222.605L217.629 126.91C197.438 106.718 171.14 93.7658 142.826 90.0679C114.512 86.3699 85.7689 92.1339 61.0697 106.463L216.879 16.4943C235.473 5.77898 256.557 0.138741 278.017 0.138741C299.477 0.138741 320.561 5.77898 339.155 16.4943L494.964 106.463C513.518 117.183 528.927 132.593 539.646 151.147C550.365 169.702 556.016 190.748 556.034 212.176V212.176Z" fill="url(#paint2_linear_4_51)"/>
<path d="M527.919 457.477C528.726 448.788 527.598 440.027 524.617 431.825C521.635 423.622 516.874 416.183 510.675 410.039L318.162 217.765L222.468 122.071C209.831 109.357 194.796 99.2777 178.235 92.4158C161.674 85.554 143.916 82.0464 125.99 82.0965C122.582 82.0965 119.345 82.0965 116.039 82.4713V89.2872C119.447 89.0486 122.651 88.8782 125.99 88.8782C143.014 88.8671 159.873 92.218 175.599 98.7388C191.325 105.26 205.608 114.822 217.629 126.876L313.323 222.57L505.87 414.81C511.616 420.536 515.956 427.518 518.546 435.206C521.136 442.893 521.907 451.077 520.796 459.113H527.612C527.817 458.67 527.885 458.091 527.919 457.477Z" fill="url(#paint3_linear_4_51)"/>
<path d="M313.323 222.604L217.629 126.91C200.155 109.398 178.03 97.257 153.873 91.9242C129.715 86.5914 104.535 88.2899 81.3127 96.8186L79.9154 97.3639C73.3928 99.8423 67.0794 102.839 61.0356 106.327C55.2495 109.694 49.7448 113.523 44.5754 117.777C43.2464 118.868 41.9173 119.958 40.6564 121.185C65.1462 110.44 92.3079 107.333 118.592 112.27C144.875 117.207 169.058 129.958 187.98 148.857L253.582 214.46C263.066 209.12 274.036 207.032 284.818 208.515C295.6 209.998 305.6 214.97 313.289 222.673L313.323 222.604Z" fill="url(#paint4_linear_4_51)"/>
<path d="M505.87 414.845C511.339 420.314 515.541 426.917 518.178 434.189C520.816 441.46 521.823 449.222 521.131 456.926C520.439 464.63 518.063 472.088 514.171 478.772C510.28 485.457 504.968 491.206 498.611 495.612C497.452 496.396 496.225 497.145 494.964 497.929L339.155 587.864C320.567 598.596 299.481 604.246 278.017 604.246C256.553 604.246 235.467 598.596 216.879 587.864L61.0697 497.929C85.7689 512.258 114.512 518.023 142.826 514.325C171.14 510.627 197.438 497.674 217.629 477.482L313.323 381.686L357.626 337.383C362.263 332.747 365.941 327.242 368.451 321.185C370.96 315.127 372.252 308.634 372.252 302.077C372.252 295.52 370.96 289.027 368.451 282.969C365.941 276.911 362.263 271.407 357.626 266.771L505.87 414.845Z" fill="url(#paint5_linear_4_51)"/>
<path d="M313.323 381.686C305.938 389.055 296.42 393.913 286.12 395.571C275.819 397.229 265.258 395.602 255.934 390.921L169.441 477.38C151.001 495.852 127.389 508.294 101.726 513.06C122.485 517.019 143.897 515.836 164.094 509.617C184.291 503.397 202.659 492.33 217.595 477.38L313.323 381.686Z" fill="url(#paint6_linear_4_51)"/>
<path d="M357.558 266.805C365.209 274.491 370.142 284.465 371.606 295.212C373.07 305.958 370.985 316.888 365.668 326.341L483.616 444.118C490.334 450.807 495.167 459.151 497.627 468.307C500.086 477.462 500.085 487.105 497.623 496.259L498.611 495.612C504.968 491.206 510.28 485.457 514.171 478.772C518.063 472.088 520.439 464.63 521.131 456.926C521.823 449.222 520.816 441.46 518.178 434.189C515.541 426.917 511.339 420.314 505.87 414.845L357.558 266.805Z" fill="url(#paint7_linear_4_51)"/>
<path d="M378.789 297.647H371.973C372.63 304.922 371.679 312.252 369.188 319.119C366.697 325.986 362.726 332.221 357.558 337.383L313.255 381.686L217.561 477.38C205.54 489.434 191.257 498.996 175.531 505.517C159.805 512.038 142.946 515.389 125.922 515.378C122.514 515.378 119.277 515.207 115.971 514.935V521.751C119.379 521.989 122.582 522.125 125.922 522.125C143.852 522.178 161.613 518.669 178.175 511.801C194.737 504.933 209.77 494.843 222.4 482.117L318.094 386.423L362.397 342.12C368.179 336.331 372.639 329.358 375.469 321.68C378.298 314.003 379.431 305.804 378.789 297.647V297.647Z" fill="url(#paint8_linear_4_51)"/>
</g>
<path d="M794.086 289.525V374.047C790.766 378.051 785.639 382.396 778.705 387.084C771.771 391.674 762.836 395.629 751.898 398.949C740.961 402.27 727.729 403.93 712.201 403.93C698.432 403.93 685.883 401.684 674.555 397.191C663.227 392.602 653.461 385.912 645.258 377.123C637.152 368.334 630.902 357.592 626.508 344.896C622.113 332.104 619.916 317.504 619.916 301.098V287.768C619.916 271.361 622.016 256.762 626.215 243.969C630.512 231.176 636.615 220.385 644.525 211.596C652.436 202.807 661.859 196.117 672.797 191.527C683.734 186.938 695.893 184.643 709.271 184.643C727.826 184.643 743.061 187.67 754.975 193.725C766.889 199.682 775.971 207.982 782.221 218.627C788.568 229.174 792.475 241.283 793.939 254.955H751.312C750.238 247.729 748.188 241.43 745.16 236.059C742.133 230.688 737.787 226.488 732.123 223.461C726.557 220.434 719.33 218.92 710.443 218.92C703.119 218.92 696.576 220.434 690.814 223.461C685.15 226.391 680.365 230.736 676.459 236.498C672.553 242.26 669.574 249.389 667.523 257.885C665.473 266.381 664.447 276.244 664.447 287.475V301.098C664.447 312.23 665.521 322.094 667.67 330.688C669.818 339.184 672.992 346.361 677.191 352.221C681.488 357.982 686.762 362.328 693.012 365.258C699.262 368.188 706.537 369.652 714.838 369.652C721.771 369.652 727.533 369.066 732.123 367.895C736.811 366.723 740.57 365.307 743.402 363.646C746.332 361.889 748.578 360.229 750.141 358.666V320.873H710.004V289.525H794.086Z" fill="#7168E9"/>
<path d="M829.535 187.719H909.076C925.385 187.719 939.398 190.16 951.117 195.043C962.934 199.926 972.016 207.152 978.363 216.723C984.711 226.293 987.885 238.061 987.885 252.025C987.885 263.451 985.932 273.266 982.025 281.469C978.217 289.574 972.797 296.361 965.766 301.83C958.832 307.201 950.678 311.498 941.303 314.721L927.387 322.045H858.246L857.953 287.768H909.369C917.084 287.768 923.48 286.4 928.559 283.666C933.637 280.932 937.445 277.123 939.984 272.24C942.621 267.357 943.939 261.693 943.939 255.248C943.939 248.412 942.67 242.504 940.131 237.523C937.592 232.543 933.734 228.734 928.559 226.098C923.383 223.461 916.889 222.143 909.076 222.143H873.48V401H829.535V187.719ZM948.773 401L900.141 305.932L946.576 305.639L995.795 398.949V401H948.773Z" fill="#7168E9"/>
<path d="M1196.92 289.379V299.486C1196.92 315.697 1194.72 330.248 1190.33 343.139C1185.93 356.029 1179.73 367.016 1171.72 376.098C1163.71 385.082 1154.14 391.967 1143.01 396.752C1131.98 401.537 1119.72 403.93 1106.24 403.93C1092.87 403.93 1080.61 401.537 1069.48 396.752C1058.44 391.967 1048.87 385.082 1040.77 376.098C1032.66 367.016 1026.36 356.029 1021.87 343.139C1017.47 330.248 1015.28 315.697 1015.28 299.486V289.379C1015.28 273.07 1017.47 258.52 1021.87 245.727C1026.26 232.836 1032.46 221.85 1040.47 212.768C1048.58 203.686 1058.15 196.752 1069.18 191.967C1080.32 187.182 1092.57 184.789 1105.95 184.789C1119.43 184.789 1131.68 187.182 1142.72 191.967C1153.85 196.752 1163.42 203.686 1171.43 212.768C1179.54 221.85 1185.79 232.836 1190.18 245.727C1194.67 258.52 1196.92 273.07 1196.92 289.379ZM1152.53 299.486V289.086C1152.53 277.758 1151.51 267.797 1149.46 259.203C1147.41 250.609 1144.38 243.383 1140.38 237.523C1136.37 231.664 1131.49 227.27 1125.73 224.34C1119.96 221.312 1113.37 219.799 1105.95 219.799C1098.53 219.799 1091.94 221.312 1086.18 224.34C1080.51 227.27 1075.68 231.664 1071.67 237.523C1067.77 243.383 1064.79 250.609 1062.74 259.203C1060.69 267.797 1059.66 277.758 1059.66 289.086V299.486C1059.66 310.717 1060.69 320.678 1062.74 329.369C1064.79 337.963 1067.82 345.238 1071.82 351.195C1075.82 357.055 1080.71 361.498 1086.47 364.525C1092.23 367.553 1098.82 369.066 1106.24 369.066C1113.67 369.066 1120.26 367.553 1126.02 364.525C1131.78 361.498 1136.62 357.055 1140.52 351.195C1144.43 345.238 1147.41 337.963 1149.46 329.369C1151.51 320.678 1152.53 310.717 1152.53 299.486Z" fill="#7168E9"/>
<path d="M1346.33 187.719H1390.13V328.637C1390.13 345.043 1386.62 358.861 1379.58 370.092C1372.65 381.322 1363.03 389.77 1350.73 395.434C1338.52 401.098 1324.46 403.93 1308.54 403.93C1292.62 403.93 1278.46 401.098 1266.06 395.434C1253.75 389.77 1244.09 381.322 1237.05 370.092C1230.12 358.861 1226.65 345.043 1226.65 328.637V187.719H1270.6V328.637C1270.6 338.207 1272.11 346.02 1275.14 352.074C1278.17 358.129 1282.51 362.572 1288.18 365.404C1293.94 368.236 1300.73 369.652 1308.54 369.652C1316.55 369.652 1323.33 368.236 1328.9 365.404C1334.56 362.572 1338.86 358.129 1341.79 352.074C1344.82 346.02 1346.33 338.207 1346.33 328.637V187.719Z" fill="#7168E9"/>
<path d="M1509.37 324.975H1455.02V290.697H1509.37C1517.77 290.697 1524.6 289.33 1529.88 286.596C1535.15 283.764 1539.01 279.857 1541.45 274.877C1543.89 269.896 1545.11 264.281 1545.11 258.031C1545.11 251.684 1543.89 245.775 1541.45 240.307C1539.01 234.838 1535.15 230.443 1529.88 227.123C1524.6 223.803 1517.77 222.143 1509.37 222.143H1470.26V401H1426.31V187.719H1509.37C1526.07 187.719 1540.38 190.746 1552.29 196.801C1564.3 202.758 1573.48 211.01 1579.83 221.557C1586.18 232.104 1589.35 244.164 1589.35 257.738C1589.35 271.508 1586.18 283.422 1579.83 293.48C1573.48 303.539 1564.3 311.303 1552.29 316.771C1540.38 322.24 1526.07 324.975 1509.37 324.975Z" fill="#7168E9"/>
<path d="M1715.4 187.719V401H1671.61V187.719H1715.4ZM1781.03 187.719V222.143H1607.01V187.719H1781.03Z" fill="#7168E9"/>
<path d="M1977.17 289.379V299.486C1977.17 315.697 1974.97 330.248 1970.58 343.139C1966.19 356.029 1959.98 367.016 1951.98 376.098C1943.97 385.082 1934.4 391.967 1923.27 396.752C1912.23 401.537 1899.97 403.93 1886.5 403.93C1873.12 403.93 1860.86 401.537 1849.73 396.752C1838.7 391.967 1829.12 385.082 1821.02 376.098C1812.91 367.016 1806.62 356.029 1802.12 343.139C1797.73 330.248 1795.53 315.697 1795.53 299.486V289.379C1795.53 273.07 1797.73 258.52 1802.12 245.727C1806.52 232.836 1812.72 221.85 1820.73 212.768C1828.83 203.686 1838.4 196.752 1849.44 191.967C1860.57 187.182 1872.83 184.789 1886.21 184.789C1899.68 184.789 1911.94 187.182 1922.97 191.967C1934.11 196.752 1943.68 203.686 1951.68 212.768C1959.79 221.85 1966.04 232.836 1970.43 245.727C1974.93 258.52 1977.17 273.07 1977.17 289.379ZM1932.79 299.486V289.086C1932.79 277.758 1931.76 267.797 1929.71 259.203C1927.66 250.609 1924.63 243.383 1920.63 237.523C1916.62 231.664 1911.74 227.27 1905.98 224.34C1900.22 221.312 1893.63 219.799 1886.21 219.799C1878.78 219.799 1872.19 221.312 1866.43 224.34C1860.77 227.27 1855.93 231.664 1851.93 237.523C1848.02 243.383 1845.04 250.609 1842.99 259.203C1840.94 267.797 1839.92 277.758 1839.92 289.086V299.486C1839.92 310.717 1840.94 320.678 1842.99 329.369C1845.04 337.963 1848.07 345.238 1852.07 351.195C1856.08 357.055 1860.96 361.498 1866.72 364.525C1872.48 367.553 1879.08 369.066 1886.5 369.066C1893.92 369.066 1900.51 367.553 1906.27 364.525C1912.04 361.498 1916.87 357.055 1920.78 351.195C1924.68 345.238 1927.66 337.963 1929.71 329.369C1931.76 320.678 1932.79 310.717 1932.79 299.486Z" fill="#7168E9"/>
<path d="M2052.76 187.719V401H2008.81V187.719H2052.76ZM2180.49 187.719L2095.97 293.041L2047.19 345.482L2039.28 303.881L2072.24 258.764L2126.59 187.719H2180.49ZM2130.54 401L2067.7 302.416L2100.22 275.17L2182.54 401H2130.54Z" fill="#7168E9"/>
<path d="M2342.65 366.723V401H2229.12V366.723H2342.65ZM2243.48 187.719V401H2199.54V187.719H2243.48ZM2327.86 274.584V307.982H2229.12V274.584H2327.86ZM2342.5 187.719V222.143H2229.12V187.719H2342.5Z" fill="#7168E9"/>
<path d="M2541.87 187.719V401H2497.92L2412.23 258.031V401H2368.29V187.719H2412.23L2498.07 330.834V187.719H2541.87Z" fill="#7168E9"/>
<defs>
<linearGradient id="paint0_linear_4_51" x1="-30.2963" y1="458.534" x2="436.689" y2="-8.45164" gradientUnits="userSpaceOnUse">
<stop offset="0.1" stop-color="#8155E5"/>
<stop offset="0.2" stop-color="#7860E7"/>
<stop offset="0.39" stop-color="#5F7DEC"/>
<stop offset="0.64" stop-color="#36ACF4"/>
<stop offset="0.93" stop-color="#00EBFF"/>
</linearGradient>
<linearGradient id="paint1_linear_4_51" x1="-30.2963" y1="458.534" x2="436.689" y2="-8.45164" gradientUnits="userSpaceOnUse">
<stop offset="0.1" stop-color="#8155E5"/>
<stop offset="0.2" stop-color="#7860E7"/>
<stop offset="0.39" stop-color="#5F7DEC"/>
<stop offset="0.64" stop-color="#36ACF4"/>
<stop offset="0.93" stop-color="#00EBFF"/>
</linearGradient>
<linearGradient id="paint2_linear_4_51" x1="231.84" y1="57.1847" x2="571.029" y2="396.408" gradientUnits="userSpaceOnUse">
<stop offset="0.15" stop-color="#FD2EB2"/>
<stop offset="0.25" stop-color="#F42BB8"/>
<stop offset="0.4" stop-color="#DA22C7"/>
<stop offset="0.59" stop-color="#B113E0"/>
<stop offset="0.81" stop-color="#7D00FF"/>
</linearGradient>
<linearGradient id="paint3_linear_4_51" x1="129.398" y1="65.7044" x2="522.535" y2="458.875" gradientUnits="userSpaceOnUse">
<stop offset="0.02" stop-color="#FE8FD6" stop-opacity="0"/>
<stop offset="0.06" stop-color="#FE90DC" stop-opacity="0.17"/>
<stop offset="0.12" stop-color="#FE91E5" stop-opacity="0.39"/>
<stop offset="0.17" stop-color="#FD92EC" stop-opacity="0.57"/>
<stop offset="0.23" stop-color="#FD93F2" stop-opacity="0.73"/>
<stop offset="0.28" stop-color="#FD94F6" stop-opacity="0.85"/>
<stop offset="0.33" stop-color="#FD95F9" stop-opacity="0.93"/>
<stop offset="0.38" stop-color="#FD95FB" stop-opacity="0.98"/>
<stop offset="0.43" stop-color="#FD95FC"/>
<stop offset="0.52" stop-color="#F48EFC"/>
<stop offset="0.67" stop-color="#DA7BFD"/>
<stop offset="0.86" stop-color="#B15CFF"/>
<stop offset="0.9" stop-color="#A956FF"/>
<stop offset="0.94" stop-color="#A147FF" stop-opacity="0.49"/>
<stop offset="0.99" stop-color="#9A38FF" stop-opacity="0"/>
</linearGradient>
<linearGradient id="paint4_linear_4_51" x1="86.4246" y1="80.8696" x2="322.627" y2="318.128" gradientUnits="userSpaceOnUse">
<stop offset="0.03" stop-color="#004EAD"/>
<stop offset="0.93" stop-color="#3FAFEA" stop-opacity="0"/>
</linearGradient>
<linearGradient id="paint5_linear_4_51" x1="153.731" y1="623.511" x2="488.012" y2="289.229" gradientUnits="userSpaceOnUse">
<stop offset="0.11" stop-color="#FD5D85"/>
<stop offset="0.28" stop-color="#FD6A7D"/>
<stop offset="0.61" stop-color="#FE8B68"/>
<stop offset="1" stop-color="#FFBB49"/>
</linearGradient>
<linearGradient id="paint6_linear_4_51" x1="335.917" y1="318.912" x2="91.9794" y2="562.884" gradientUnits="userSpaceOnUse">
<stop offset="0.28" stop-color="#4637D2"/>
<stop offset="0.34" stop-color="#4839D2" stop-opacity="0.97"/>
<stop offset="0.42" stop-color="#4D3ED4" stop-opacity="0.9"/>
<stop offset="0.5" stop-color="#5547D6" stop-opacity="0.78"/>
<stop offset="0.59" stop-color="#6053D8" stop-opacity="0.6"/>
<stop offset="0.69" stop-color="#6F63DC" stop-opacity="0.38"/>
<stop offset="0.79" stop-color="#8076E0" stop-opacity="0.12"/>
<stop offset="0.83" stop-color="#887FE2" stop-opacity="0"/>
</linearGradient>
<linearGradient id="paint7_linear_4_51" x1="325.66" y1="279.482" x2="513.299" y2="467.122" gradientUnits="userSpaceOnUse">
<stop offset="0.04" stop-color="#E14534"/>
<stop offset="0.22" stop-color="#E14735" stop-opacity="0.99"/>
<stop offset="0.35" stop-color="#E34C38" stop-opacity="0.94"/>
<stop offset="0.47" stop-color="#E5543D" stop-opacity="0.87"/>
<stop offset="0.58" stop-color="#E86044" stop-opacity="0.77"/>
<stop offset="0.68" stop-color="#EB704E" stop-opacity="0.64"/>
<stop offset="0.78" stop-color="#F08359" stop-opacity="0.48"/>
<stop offset="0.88" stop-color="#F69A67" stop-opacity="0.29"/>
<stop offset="0.97" stop-color="#FCB377" stop-opacity="0.07"/>
<stop offset="1" stop-color="#FEBC7C" stop-opacity="0"/>
</linearGradient>
<linearGradient id="paint8_linear_4_51" x1="137.679" y1="530.066" x2="372.109" y2="295.67" gradientUnits="userSpaceOnUse">
<stop offset="0.05" stop-color="#FE85A3" stop-opacity="0.03"/>
<stop offset="0.11" stop-color="#FE85A3" stop-opacity="0.32"/>
<stop offset="0.16" stop-color="#FE85A3" stop-opacity="0.56"/>
<stop offset="0.2" stop-color="#FE85A3" stop-opacity="0.75"/>
<stop offset="0.24" stop-color="#FE85A3" stop-opacity="0.89"/>
<stop offset="0.28" stop-color="#FE85A3" stop-opacity="0.97"/>
<stop offset="0.3" stop-color="#FE85A3"/>
<stop offset="0.38" stop-color="#FE91A0"/>
<stop offset="0.52" stop-color="#FFB298"/>
<stop offset="0.65" stop-color="#FFD58F"/>
<stop offset="1" stop-color="#FFD58F" stop-opacity="0"/>
</linearGradient>
<clipPath id="clip0_4_51">
<rect width="556" height="604.222" fill="white"/>
</clipPath>
</defs>
</svg>
